<svg xmlns="http://www.w3.org/2000/svg" width="300" height="300" fill="none" xmlns:v="https://vecta.io/nano"><style><![CDATA[.B{fill:#fff}.C{fill:#005596}]]></style><mask id="A" maskUnits="userSpaceOnUse" x="3" y="3" width="294" height="294"><path d="M3.926 296.074h292.148V3.926H3.926v292.148z" class="B"/></mask><g mask="url(#A)" class="C"><path d="M150 3.925C69.326 3.925 3.926 69.325 3.926 150S69.326 296.073 150 296.073 296.075 230.674 296.075 150 230.675 3.925 150 3.925zm0 2.972c19.321 0 38.06 3.784 55.701 11.245 17.041 7.208 32.345 17.527 45.488 30.669s23.462 28.448 30.669 45.488c7.463 17.641 11.245 36.381 11.245 55.702s-3.782 38.061-11.245 55.701c-7.207 17.039-17.525 32.344-30.669 45.487s-28.447 23.462-45.488 30.669c-17.641 7.462-36.38 11.245-55.701 11.245s-38.06-3.783-55.701-11.245c-17.04-7.207-32.344-17.525-45.488-30.669S25.35 222.74 18.143 205.701C10.681 188.061 6.898 169.32 6.898 150s3.783-38.061 11.245-55.702c7.207-17.04 17.526-32.344 30.669-45.488s28.448-23.461 45.488-30.669C111.94 10.68 130.68 6.896 150 6.896z"/></g><mask id="B" maskUnits="userSpaceOnUse" x="0" y="0" width="300" height="300"><path d="M0 300h300V0H0v300z" class="B"/></mask><g mask="url(#B)" class="C"><path d="M251.692 157.837c.461-1.829.66-3.609.593-5.338 1.339-.63 2.418-.654 2.418-.654-.558 3.289-1.758 5.055-3.011 5.992zm-2.914 24.292a17.82 17.82 0 0 0 .08-1.945l.17-5.34c1.947-.991 3.029-2.383 3.029-2.383-.019 5.287-1.652 8.138-3.279 9.668zm-6.205 7.076c-.364-1.517-.886-2.854-1.41-3.948l.137-.375c1.18-3.483.954-6.245.944-6.361a.99.99 0 1 0-1.974.173c.014.171.132 1.885-.435 4.204a11.85 11.85 0 0 0-.583-.824l-2.527-3.178-.934 3.88c-.038.115-.337.966-1.243 2.365-2.448-20.815 15.248-20.946 15.248-20.946s-3.106 4.277-2.919 16.021c.079 4.983-1.945 7.611-4.304 8.989zm-3.814 15.146c1.22-1.437 2.187-2.945 2.892-4.525 1.479.027 2.457.483 2.457.483-1.954 2.702-3.812 3.755-5.349 4.042zm-6.292 2.988c-.136-.046-.288-.091-.436-.137l2.464-10.872.093-.414-.026-.424-.401-6.533c2.948-3.493 3.539-5.653 3.539-5.653s10.378 13.054-5.233 24.033zm-7.771 17.074c.341-.528.667-1.084.968-1.688.899-1.796 1.777-3.338 2.614-4.66 2.185.018 3.787-.718 3.787-.718-2.455 4.683-5.22 6.459-7.369 7.066zm-9.432 3.429c.294-1.25.437-2.443.489-3.515.377-.309.725-.618 1.039-.919 2.653-2.547 3.725-5.101 3.77-5.209.06-.147.079-.298.068-.446l2.3-.647.219-.061.206-.094 4.204-1.911.341.029c-1.247 1.752-2.608 3.969-4.008 6.771-2.41 4.822-5.734 6.067-8.628 6.002zm-15.81 11.437c-1.008-1.006-2.576-2.353-4.63-3.466 3.235-2.568 6.492-3.093 6.73-3.128a.99.99 0 1 0-.281-1.961c-.115.016-2.856.423-5.98 2.363-.764.476-1.591 1.074-2.424 1.812-.748-.295-1.541-.549-2.383-.743.478-3.019 2.386-6.324 8.083-7.56 11.48-2.487 14.939-6.483 14.939-6.483s3.528 15.621-14.054 19.166zm5.861.246c1.725-.763 3.25-1.701 4.572-2.818 1.32.667 2.003 1.503 2.003 1.503-2.936 1.584-5.066 1.725-6.575 1.315zm-20.734 9.627c-6.486 4.983-11.268 1.638-13.576-.854a16.81 16.81 0 0 0 .994.029 17.93 17.93 0 0 0 5.511-.867c3.499-1.133 5.58-2.961 5.667-3.038a.99.99 0 1 0-1.315-1.481c-.254.222-5.067 4.351-12.305 3.231 17.203-20.705 29.624-4.236 29.624-4.236s-5.285.059-14.6 7.216zm-.401 2.665a17.21 17.21 0 0 0 1.608-1.095c1.593-1.223 3.057-2.225 4.388-3.05 1.957.973 3.72 1.01 3.72 1.01-4.255 3.139-7.517 3.529-9.716 3.135zm-.007-17.835c-1.704.287-3.407.846-5.103 1.67.661-1.418 2.145-2.954 5.251-4.171 0 0 .198 1.062-.148 2.501zm-27.755-22.822c.586-4.241 2.327-7.023 5.321-8.486 10.507-5.137 32.399 7.955 32.619 8.089l1.323.798 1.62-14.2 6.595-57.154-6.475-6.218c-3.646 0-7.242-.854-10.752-2.074h23.966l-10.371 81.607h-42.748a3.35 3.35 0 0 1 .016.318c0-.987-.408-1.899-1.114-2.68zm-7.052 5.96c-2.927 0-6.186-1.348-6.186-3.28s3.259-3.28 6.186-3.28 6.185 1.347 6.185 3.28c0 1.551-2.541 3.28-6.185 3.28zm-4.223 1.24c1.226.469 2.664.741 4.223.741 1.434 0 2.769-.226 3.93-.629l-.457 10.415h-7.234l-.462-10.527zm.69 12.387h6.776c.422 0 .766.344.766.765a.77.77 0 0 1-.766.767h-6.776c-.422 0-.765-.344-.765-.767s.343-.765.765-.765zm3.389 11.726c-2.448 0-4.432-1.984-4.432-4.43a4.43 4.43 0 1 1 8.862 0 4.43 4.43 0 0 1-4.43 4.43zm-8.009-28.951H96.544l-10.371-81.607h25.563c-3.51 1.22-7.105 2.074-10.752 2.074l-6.474 6.218 6.177 53.532-.006.001 2.033 17.821 1.322-.798c.22-.134 22.114-13.224 32.619-8.089 3.076 1.504 4.832 4.396 5.37 8.837-.458.611-.746 1.288-.811 2.011zm-27.594 17.959c3.105 1.217 4.59 2.753 5.252 4.171-1.697-.824-3.4-1.383-5.105-1.67-.344-1.439-.147-2.501-.147-2.501zm1.143 12.941c.087.077 2.169 1.905 5.668 3.038 1.477.477 3.346.867 5.51.867a16.84 16.84 0 0 0 .995-.029c-2.308 2.492-7.09 5.837-13.576.854-9.315-7.157-14.6-7.216-14.6-7.216s12.42-16.469 29.623 4.236c-7.237 1.12-12.05-3.009-12.304-3.231a.99.99 0 0 0-1.398.082c-.363.409-.326 1.034.082 1.399zm-10.718 4.26s1.763-.037 3.72-1.01c1.331.825 2.794 1.827 4.387 3.05.535.412 1.071.769 1.609 1.095-2.198.394-5.462.004-9.716-3.135zm-11.049-28.893c5.145 1.22 7.55 3.46 8.67 5.391-.596-.199-1.217-.378-1.875-.52-1.964-.425-3.674-.895-5.162-1.38-.523-2.121-1.633-3.491-1.633-3.491zm-8.563.324s3.459 3.996 14.938 6.483c5.698 1.236 7.605 4.541 8.083 7.56a16.78 16.78 0 0 0-2.382.743 18.04 18.04 0 0 0-2.425-1.812c-3.123-1.94-5.864-2.347-5.979-2.363a.99.99 0 1 0-.281 1.961c.238.035 3.495.56 6.729 3.128-2.054 1.113-3.621 2.46-4.629 3.466-17.582-3.545-14.054-19.166-14.054-19.166zm1.617 18.097s.683-.836 2.005-1.503c1.32 1.117 2.846 2.055 4.571 2.818-1.509.41-3.64.269-6.576-1.315zm-8.672-20.011c.044.108 1.118 2.662 3.77 5.209a17.99 17.99 0 0 0 1.039.919c.054 1.072.195 2.265.489 3.515-2.892.065-6.218-1.18-8.627-6.002-5.251-10.508-9.979-12.87-9.979-12.87s15.284-7.804 22.844 10.668c-.679-.496-.974-.812-.983-.822l-2.566-2.966-.865 3.825c-.021.093-.185.852-.277 2.038-2.065-2.083-2.939-4.092-3.013-4.271a.99.99 0 1 0-1.831.757zm-11.503-.852s1.602.736 3.787.718a52.82 52.82 0 0 1 2.614 4.66c.302.604.627 1.16.968 1.688-2.149-.607-4.913-2.383-7.369-7.066zm-5.635-34.041s1.378 5.104 10.636 12.334c4.46 3.482 4.854 7.17 4.067 10.059a16.93 16.93 0 0 0-2.636-.326 17.85 17.85 0 0 0-1.302-2.464c-1.97-3.106-4.261-4.663-4.357-4.729a.99.99 0 1 0-1.106 1.645c.196.133 2.821 1.971 4.616 5.578a20.68 20.68 0 0 0-5.642 1.23c-14.212-10.824-4.276-23.327-4.276-23.327zm-6.409 17.003s.98-.456 2.459-.483c.704 1.58 1.671 3.088 2.892 4.525-1.538-.287-3.396-1.34-5.352-4.042zm-2.768-20.093c.187-11.744-2.919-16.021-2.919-16.021s17.702.131 15.247 20.959c-.966-1.49-1.233-2.345-1.238-2.364l-1.023-3.786-2.441 3.07c-.04.049-.264.337-.584.824-.566-2.319-.449-4.033-.434-4.204a.99.99 0 1 0-1.974-.173c-.01.116-.236 2.878.942 6.361.042.121.093.25.138.375a20.04 20.04 0 0 0-1.41 3.948c-2.357-1.378-4.383-4.006-4.304-8.989zm-5.18-7.755s1.081 1.392 3.029 2.383c.133 1.56.202 3.333.17 5.34-.011.674.022 1.319.08 1.945-1.627-1.53-3.26-4.381-3.279-9.668zm-2.646-20.616s1.08.024 2.418.654c-.067 1.729.133 3.509.593 5.338-1.252-.937-2.453-2.703-3.011-5.992zm5.341-30.194s.26 1.743 1.471 3.562a52.86 52.86 0 0 1-2.469 4.739c-.34.581-.627 1.159-.882 1.733-.669-2.131-.695-5.416 1.88-10.034zm9.842 18.507a5.06 5.06 0 0 1 .032-.357l.894-3.95-3.687 1.788c-.092.044-.883.427-1.982 1.174.497-3.49 1.996-5.771 2.119-5.952a.99.99 0 1 0-1.636-1.117c-.066.096-1.617 2.392-2.295 6.005-.152.805-.262 1.715-.295 2.709-.619.551-1.256 1.185-1.875 1.908-2.068-2.38-3.489-6.13-.404-11.416 5.919-10.146 5.308-15.396 5.308-15.396s14.69 8.395 3.821 24.604zm-2.464-37.906s.922.562 1.763 1.78c-.927 1.46-1.648 3.101-2.17 4.913-.612-1.44-.762-3.57.407-6.693zm7.424 32.456c.602-1.788.941-3.547 1.01-5.275 1.384-.524 2.462-.462 2.462-.462-.814 3.234-2.149 4.901-3.471 5.737zm2.02 35.176c.875 3.218.528 5.326-.215 6.702-.351-1.853-.919-3.552-1.706-5.093.95-1.135 1.92-1.609 1.92-1.609zm-5.117-20.467c1.349-1.717 1.746-3.435 1.746-3.435 2.205 4.806 1.922 8.08 1.088 10.151-.21-.593-.452-1.191-.744-1.798a52.87 52.87 0 0 1-2.089-4.918zm-2.795 12.356c-.394-3.655-1.758-6.066-1.816-6.168a.99.99 0 1 0-1.718.987c.121.212 1.762 3.195 1.673 7.435-2.121-.981-4.133-1.431-5.536-1.638-8.12-16.099 6.415-22.958 6.415-22.958s-1.021 5.187 4.083 15.765c2.606 5.402 1.016 8.991-1.165 11.213-.615-.511-1.248-.959-1.885-1.353.093-1.212.055-2.319-.05-3.283zm16.177-63.589s-3.489 3.972-4.39 15.683c-.428 5.568-3.214 7.951-6.018 8.918a16.97 16.97 0 0 0-1.223-2.454c.52-.815.933-1.606 1.258-2.334 1.497-3.359 1.528-6.13 1.528-6.246a.99.99 0 1 0-1.981-.011c-.003.234-.075 3.369-2.024 6.817a20.56 20.56 0 0 0-4.211-4.052c1.23-17.679 17.062-16.321 17.062-16.321zm-5.573 88.555c4.103 3.335 5.296 6.396 5.465 8.623a17.82 17.82 0 0 0-1.462-1.283 53.37 53.37 0 0 1-4.05-3.486c.452-2.139.047-3.854.047-3.854zm7.059-80.114c-.508 5.263-2.398 7.95-4.16 9.322.116-.618.208-1.256.26-1.928.154-2.003.387-3.761.664-5.301 2.03-.807 3.236-2.093 3.236-2.093zm9.754 105.482c-1.166-1.483-2.453-2.729-3.862-3.732.32-1.445.961-2.314.961-2.314 2.261 2.452 2.924 4.481 2.901 6.046zM75.886 73.988l.084-.085c2.775-2.857 6.913-3.926 10.717-2.743l50.645 15.742-59.866-8.344c-2.194-.306-3.121-2.979-1.578-4.569zM88.198 62.7l.095-.068c2.699-1.947 6.293-2.125 9.199-.5l39.708 22.207.218.501-48.396-16.505c-2.467-.84-2.936-4.107-.824-5.635zm11.136-7.538c.023-.014.046-.026.069-.039 1.77-.984 3.965-.778 5.537.498l31.034 25.19.158.578L99.272 59.69c-1.739-1.024-1.7-3.547.063-4.528zm9.384-4.376l.087-.038c2.581-1.106 5.583-.389 7.388 1.761l18.851 22.458a26.47 26.47 0 0 0 .273 2.754l-27.273-22.029c-1.693-1.367-1.325-4.047.674-4.906zm10.146-3.71l.066-.021c2.028-.633 4.222.208 5.278 2.05l1.042 1.816 1.028 1.797 9.194 16.043a28.7 28.7 0 0 0-.377 2.945l-17.26-21.152c-.977-1.198-.446-3.014 1.029-3.477zm8.797-2.186c.025-.005.05-.011.076-.015 2.528-.546 5.066.888 5.893 3.339l.83 2.456a17.26 17.26 0 0 0-2.209-.147 19.68 19.68 0 0 0-1.198.037l-3.44.213-1.44-2.536c-.757-1.332-.008-3.022 1.488-3.347zm9.851-1.565c.021-.002.041-.005.062-.006 1.585-.18 3.027.935 3.275 2.511l.096.612c-.494-.045-.886-.055-1.118-.055l-.132.001-4.494.138c-.331-1.517.725-3.02 2.311-3.2zm7.756-.32c.017-.001.034-.001.051-.002 1.328-.045 2.431 1.02 2.431 2.349v1.715l-1.166 1.227-.303-.186c-1.018-.624-2.093-1.021-3.08-1.277l-.17-1.127a2.35 2.35 0 0 1 2.237-2.699zm-5.52 5.363s3.04-.08 5.496 1.428c-.722.84-1.455 1.739-2.18 2.695-.628-1.309-1.653-2.748-3.316-4.123zm1.497 4.917c-1.354-.972-2.874-1.688-4.513-2.152l-1.254-3.729 3.006 2.49c1.227 1.014 2.155 2.155 2.761 3.39zm-4.5 10.649c-.22.627-.412 1.253-.59 1.879l-6.723-11.841.952.381c.271.128 3.544 1.788 5.602 7.484l.759 2.096zm-5.569-11.398c4.659-.289 7.785 1.325 9.745 3.009-1.21 1.869-2.233 3.744-3.071 5.619-2.466-6.821-6.674-8.627-6.674-8.627zm24.564-7.092a2.29 2.29 0 0 1-.024.259l-1.082 7.168c-.961.9-1.813 1.826-2.559 2.769 1.257-4.989 2.931-8.696 3.665-10.196zm-1.358-1.695s-7.999 14.427-5.282 30.851c-.545-3.868-.993-14.663 9.162-22.177 0 0-3.978 7.61-1.953 14.855.108.39.244.769.383 1.15.665 1.834 2.803 7.928 2.803 10.43 0 11.294-15.404 15.665-20.092 5.577-10.181-21.909 14.979-40.685 14.979-40.685zm3.516 2.079c.248-1.576 1.69-2.691 3.275-2.511.021.002.041.005.062.006 1.404.16 2.389 1.358 2.368 2.683l-6.487 4.8.782-4.978zm-.156 18.006c-.323-5.435 2.246-10.435 2.276-10.494l3.49-6.675c-.015.049-.025.097-.041.146l-5.725 17.022zm13.268-18.961c.025.005.05.011.076.015 1.496.325 2.244 2.015 1.487 3.347l-12.91 22.733a104.63 104.63 0 0 0-1.109-3.216l-.016-.045 6.578-19.495c.828-2.451 3.366-3.885 5.894-3.339zm8.806 2.18l.066.021c1.476.463 2.008 2.279 1.03 3.477l-20.04 24.558c-.119-.482-.251-.975-.392-1.473l14.058-24.533c1.056-1.842 3.252-2.684 5.278-2.05zm10.125 3.693l.088.038c1.999.86 2.366 3.54.673 4.906l-29.238 23.618.012-.451a9.03 9.03 0 0 0-.084-1.139l21.162-25.212a6.37 6.37 0 0 1 7.387-1.761zm9.402 4.376c.024.013.047.025.07.039 1.763.981 1.802 3.504.062 4.528l-38.444 22.632.029-.122 32.747-26.579c1.572-1.276 3.767-1.482 5.536-.498zm11.111 7.509l.095.068c2.113 1.528 1.643 4.795-.824 5.635l-49.95 17.035c.01-.019.021-.038.032-.057l41.448-23.181c2.906-1.625 6.5-1.448 9.199.5zm-21.361 138.056c-1.608-.82-4.487-2.216-8.047-3.626-7.351-2.913-13.751-4.391-19.021-4.391-3.779 0-8.46.831-11.833 4.183v-63.041l.836-1.987c.026-.063 2.771-6.352 11.39-6.352 4.292 0 9.296 2.235 14.593 4.6 5.919 2.644 12.593 5.622 19.466 5.877l-7.384 64.737zm2.03 1.287l-.158-.212 7.322-64.193 3.527 3.387-6.065 52.559-.004-.001-.433 3.789-1.031 8.934-3.158-4.263zm-40.931-2.022c2.578-3.908 6.936-5.3 11.833-5.3 12.103 0 27.506 8.502 27.506 8.502l3.323 4.485c-2.312-1.248-6.005-3.112-10.239-4.752-9.56-3.702-16.877-4.373-21.746-1.994-3.308 1.618-5.397 4.61-6.231 8.901-1.219-.656-2.747-1.084-4.446-1.19v-8.652zm-2.066-91.357c-.002-.409-.334-.74-.743-.74h-.003c-.411.003-.742.337-.74.747l.092 19.033a13.57 13.57 0 0 0-1.81-1.512l-.442-17.543c-.01-.41-.348-.739-.761-.724s-.735.351-.725.761l.418 16.587a14.18 14.18 0 0 0-2.402-.988l-.832-18.923h18.084l-.83 18.91c-.811.248-1.547.553-2.222.891l.416-16.477c.01-.41-.315-.751-.725-.761-.42-.001-.751.32-.761.724l-.438 17.391c-.694.467-1.296.962-1.813 1.455l.091-18.824c.002-.41-.329-.744-.74-.747h-.003c-.409 0-.741.331-.744.74l-.099 20.507c-.838 1.117-1.193 1.955-1.193 1.955s-.293-.693-.974-1.656l-.101-20.806zm12.723-6.499c.002.719-.58 1.305-1.299 1.307l-19.797.066c-.72.002-1.304-.579-1.307-1.299s.579-1.305 1.298-1.308l19.797-.064c.72-.003 1.305.579 1.308 1.298zm-22.295-9.284c-.002-.72.579-1.305 1.299-1.307l19.797-.065c.72-.003 1.304.579 1.307 1.299a1.3 1.3 0 0 1-1.298 1.307l-19.797.065c-.72.003-1.305-.579-1.308-1.299zm25.819 2.5c1.081-.004 1.958.869 1.962 1.949s-.869 1.958-1.949 1.963l-29.399.096c-1.08.004-1.959-.87-1.962-1.949s.869-1.959 1.949-1.963l29.399-.096zm-77.58 13.001l.194-2.343 46.75-2.306 1.114 2.522 2.503 2.838 1.005-.015.647 14.734c-.931-.158-1.933-.252-3.021-.252-1.477 0-3.002.234-4.568.622l-.509.131c-1.586.424-3.213 1-4.878 1.668l-1.288-1.326-8.281-3.814-3.725-2.645-1.601-2.153-6.272.738-4.852 1.721-1.929-.159-1.009-2.491-3.636 1.442-2.415 2.931-1.199-.973.472-5.699-3.501-5.171zm49.587 84.357c-5.271 0-11.671 1.478-19.022 4.391a97.18 97.18 0 0 0-7.785 3.492l-7.367-64.592c3.184-.072 7.532-.682 19.187-5.888 5.297-2.365 10.301-4.6 14.592-4.6 8.518 0 11.283 6.104 11.392 6.355l.834 1.976v63.049c-3.371-3.352-8.053-4.183-11.831-4.183zm-32.257 13.567l-7.534-65.281 3.778-3.628 7.324 64.215-.153.084-.257.347-3.159 4.263zm4.751-3.083s15.403-8.502 27.506-8.502c4.897-.001 9.254 1.391 11.831 5.301v8.681c-1.711.15-3.235.627-4.422 1.338-.813-4.385-2.913-7.44-6.265-9.078-4.871-2.383-12.187-1.71-21.747 1.993-4.222 1.635-7.905 3.492-10.219 4.741l3.316-4.474zm72.745-73.22h-.001l-1.782-.776-.642-.283-.789-.352-4.806-2.105c-1.855-.78-3.668-1.473-5.431-1.989l-.509-.141-.526-.14-.524-.127c-1.433-.331-2.832-.53-4.19-.53-1.072 0-2.062.091-2.982.245l.661-15.043 21.915-.318 2.236.185 1.159 3.012 1.581.731 1.835-1.277-.432-5.91.826-2.819 4.208.348.975 1.161 1.86-.454 1.254-.897.401 5.95 4.176 12.222 4.394 9.307h-24.867zm39.18-56.032l.083.085c1.541 1.59.615 4.263-1.578 4.569l-59.867 8.344 50.645-15.742c3.804-1.182 7.941-.114 10.717 2.743zm5.227 34.815a53.14 53.14 0 0 1 .662 5.301c.053.672.144 1.31.261 1.928-1.762-1.372-3.652-4.059-4.16-9.322 0 0 1.206 1.286 3.237 2.093zm15.311 5.787a20.58 20.58 0 0 0-4.211 4.052c-1.949-3.448-2.021-6.583-2.023-6.817a.99.99 0 1 0-1.982.011c.001.116.031 2.887 1.527 6.246.325.728.738 1.519 1.258 2.334a16.96 16.96 0 0 0-1.223 2.454c-2.804-.967-5.591-3.35-6.019-8.918-.901-11.711-4.39-15.683-4.39-15.683s15.832-1.358 17.063 16.321zm.647-12.252c1.169 3.123 1.018 5.253.407 6.693-.521-1.812-1.243-3.453-2.17-4.913.84-1.218 1.763-1.78 1.763-1.78zm-6.073 43.73s.396 1.718 1.746 3.435c-.535 1.472-1.217 3.109-2.09 4.918a17.93 17.93 0 0 0-.744 1.798c-.833-2.071-1.118-5.345 1.088-10.151zm-3.371 23.902s.97.474 1.919 1.609c-.787 1.541-1.354 3.24-1.704 5.093-.744-1.376-1.091-3.484-.215-6.702zm-1.452-40.913s1.078-.062 2.462.462c.069 1.728.407 3.487 1.009 5.275-1.322-.836-2.657-2.503-3.471-5.737zm-26.143 90.818s-1.111 1.37-1.633 3.491a52.59 52.59 0 0 1-5.162 1.38c-.659.142-1.279.321-1.875.52 1.119-1.931 3.524-4.171 8.67-5.391zm25.158-9.713l-.627 1.169c-.303.565-.911.896-1.55.843l-.893-.073-4.908 2.23-6.475 1.823-2.424-1.274-1.8-7.196-4.562-5.394-3.131-.258 8.095-63.689 1.631 2.006 4.778 7.461.299 7.886 2.333 5.739 8.993 15.401 1.062 7.971.673 10.953-2.796 12.336 1.302 2.066zm13.518-54.835a.99.99 0 0 0-1.352.364c-.059.102-1.424 2.513-1.817 6.168a17.88 17.88 0 0 0-.05 3.283 16.65 16.65 0 0 0-1.885 1.353c-2.181-2.222-3.771-5.811-1.165-11.213 5.104-10.578 4.083-15.765 4.083-15.765s14.535 6.859 6.414 22.958c-1.403.207-3.415.657-5.535 1.638-.09-4.24 1.552-7.223 1.672-7.435a.99.99 0 0 0-.365-1.351zm5.028-24.291c3.084 5.286 1.664 9.036-.404 11.416a19.67 19.67 0 0 0-1.875-1.908 18.08 18.08 0 0 0-.295-2.709c-.679-3.613-2.229-5.909-2.295-6.005a.99.99 0 1 0-1.635 1.117c.121.181 1.621 2.462 2.118 5.952-1.099-.747-1.89-1.13-1.982-1.174l-3.687-1.788.894 3.95c.006.038.02.163.033.357-10.87-16.209 3.82-24.604 3.82-24.604s-.611 5.25 5.308 15.396zm.714-9.299c2.575 4.618 2.548 7.903 1.881 10.034a17.84 17.84 0 0 0-.884-1.733c-1.011-1.735-1.82-3.315-2.469-4.739 1.212-1.819 1.472-3.562 1.472-3.562zM150 36.073c-62.919 0-113.926 51.007-113.926 113.926S87.081 263.926 150 263.926s113.927-51.007 113.927-113.927S212.921 36.073 150 36.073z"/></g><mask id="C" maskUnits="userSpaceOnUse" x="0" y="0" width="300" height="300"><path d="M0 300h300V0H0v300z" class="B"/></mask><g mask="url(#C)" class="C"><path d="M48.896 82.317c.466-.409.892-.887 1.278-1.432.613-.868.974-1.661 1.083-2.383s-.005-1.414-.343-2.081-.856-1.249-1.554-1.741c-.692-.488-1.368-.764-2.029-.827s-1.294.093-1.9.468-1.342 1.178-2.21 2.406l-.727 1.112 3.744 2.644 2.658 1.833zm-7.222-5.056l.726-.965c.575-.814.958-1.488 1.146-2.019s.266-.991.234-1.379-.165-.784-.4-1.191-.584-.775-1.051-1.104c-.822-.581-1.599-.738-2.333-.473s-1.456.899-2.166 1.905a10 10 0 0 0-.972 1.691c.504.444 1.327 1.071 2.47 1.878l2.346 1.657zm6.223 8.629l-.464-.328.101-.95c-.017-.081-.078-.179-.185-.293-.169-.179-.564-.511-1.186-.993l-1.435-1.081-5.956-4.206-2.314-1.545c-.565-.36-.937-.553-1.116-.581-.117-.014-.229.011-.333.075-.245.152-.614.568-1.104 1.248l-.623-.439.599-.806 1.501-2.02 2.478-3.698c.679-.961 1.301-1.632 1.866-2.013s1.173-.561 1.824-.541a3.23 3.23 0 0 1 1.796.61c.434.306.78.681 1.039 1.126s.423.911.495 1.401a4.67 4.67 0 0 1-.009 1.459c-.079.483-.251 1.064-.516 1.746.617-.719 1.163-1.265 1.64-1.639s.968-.622 1.473-.743a3.31 3.31 0 0 1 1.536-.004c.519.12 1.025.353 1.519.703.975.689 1.626 1.589 1.95 2.703s.338 2.26.038 3.439c-.224.878-.672 1.791-1.342 2.74l-2.102 2.808-1.169 1.824z"/></g><mask id="D" maskUnits="userSpaceOnUse" x="0" y="0" width="300" height="300"><path d="M0 300h300V0H0v300z" class="B"/></mask><g mask="url(#D)" class="C"><path d="M43.78 63.493l-.571-.523 1-1.036 1.613-1.671 1.41-1.61 1.426-1.663c1.04-1.135 1.9-1.87 2.579-2.205s1.376-.436 2.092-.305 1.341.443 1.877.932c.499.457.872 1.047 1.12 1.766s.303 1.483.164 2.291-.493 1.701-1.06 2.678l2.355.223 5.018.466 2.412.144a.77.77 0 0 0 .236-.078c.111-.062.305-.245.583-.548l.571.523-1.141 1.137-1.13 1.341c-.801-.022-2.265-.172-4.394-.451l-3.027-.313-3.8-.203-.185-.334.672-.68c.992-1.081 1.488-2.136 1.489-3.163s-.418-1.925-1.256-2.693c-.731-.671-1.532-.961-2.404-.875s-1.755.617-2.648 1.591a8.13 8.13 0 0 0-1.374 2.054l.85.879 2.537 2.44 3.958 3.629 2.395 2.129c.575.506.948.774 1.117.803s.351-.009.542-.117.616-.508 1.27-1.199l.571.523-2.204 2.261-2.568 2.945-.571-.523c.632-.712.992-1.169 1.083-1.369s.119-.372.084-.513c-.053-.18-.3-.489-.742-.926l-2.499-2.356-4.127-3.783-2.396-2.147c-.581-.5-.955-.762-1.121-.79s-.344.012-.534.117-.613.506-1.274 1.202z"/></g><mask id="E" maskUnits="userSpaceOnUse" x="0" y="0" width="300" height="300"><path d="M0 300h300V0H0v300z" class="B"/></mask><g mask="url(#E)" class="C"><path d="M62.609 53.794c.484.593 1.036 1.147 1.655 1.662s1.199.92 1.742 1.216c.911.504 1.817.814 2.716.928s1.746.047 2.539-.2 1.55-.665 2.274-1.257c1.006-.821 1.679-1.78 2.023-2.877s.334-2.24-.028-3.428-1.017-2.363-1.966-3.524c-.81-.993-1.688-1.801-2.633-2.424-.581-.379-1.175-.667-1.783-.863s-1.223-.296-1.847-.302-1.32.127-2.086.399-1.493.69-2.18 1.25c-.993.811-1.683 1.744-2.07 2.799s-.426 2.157-.118 3.305.895 2.254 1.762 3.315zm-1.314 2.368c-.805-.986-1.401-2.019-1.787-3.098s-.51-2.233-.369-3.462.507-2.368 1.097-3.417 1.444-2.03 2.562-2.943c1.03-.842 2.086-1.461 3.166-1.859s2.085-.578 3.015-.542 1.783.212 2.56.524c.584.231 1.181.576 1.79 1.036s1.182 1.018 1.718 1.673c1.718 2.105 2.442 4.434 2.17 6.987s-1.486 4.71-3.639 6.469c-.981.801-2.026 1.388-3.134 1.763a7.2 7.2 0 0 1-3.313.341c-1.1-.148-2.168-.545-3.206-1.191s-1.914-1.406-2.628-2.281z"/></g><mask id="F" maskUnits="userSpaceOnUse" x="0" y="0" width="300" height="300"><path d="M0 300h300V0H0v300z" class="B"/></mask><g mask="url(#F)" class="C"><path d="M85.63 48.321l-3.41-3.874-6.873-7.566c-.489-.531-.832-.818-1.032-.86s-.691.101-1.477.427l-.353-.634 2.733-1.407 2.701-1.611.353.633c-.91.553-1.413.901-1.508 1.046-.065.1-.055.224.026.373.102.183.319.473.65.87l1.798 2.142 5.73 6.403-1.001-7.951-.982-6.524.676-.375 4.605 4.178 6.314 5.512-1.709-7.309-1.068-4.014-.344-1.068c-.082-.147-.204-.221-.364-.219s-.75.266-1.766.794l-.353-.635 2.304-1.182 2.221-1.33.353.633c-.482.278-.78.507-.89.689s-.153.422-.125.72.248 1.393.662 3.284l.89 4.167.668 2.77 1.472 5.863-1.078.599-4.731-4.233-6.034-5.183.797 6.391.6 4.19.231 1.525.384 2.173-1.068.593z"/></g><mask id="G" maskUnits="userSpaceOnUse" x="0" y="0" width="300" height="300"><path d="M0 300h300V0H0v300z" class="B"/></mask><g mask="url(#G)" class="C"><path d="M103.073 31.901l5.741-2.079-5.325-5.827-.416 7.906zm-2.977 8.293l-.28-.773c.595-.224.961-.383 1.093-.479s.24-.224.323-.387.152-.533.208-1.11l.322-3.731.521-7.442.284-5.428.74-.268 8.984 9.646 2.829 2.912c.24.213.461.331.662.352s.601-.072 1.203-.281l.28.773-2.519.783-3.621 1.439-.28-.773 1.518-.639c.168-.104.271-.204.309-.299s.038-.196 0-.303c-.06-.166-.192-.363-.394-.59l-2.658-2.973-6.583 2.384-.182 3.371c-.03.602-.001 1.025.086 1.268.039.106.101.183.186.229.119.068.272.09.46.065.303-.041.808-.185 1.516-.433l.28.773-2.913.94-2.374.975z"/></g><mask id="H" maskUnits="userSpaceOnUse" x="0" y="0" width="300" height="300"><path d="M0 300h300V0H0v300z" class="B"/></mask><g mask="url(#H)" class="C"><path d="M114.518 17.847l-.155-.758 1.416-.253 2.287-.408 2.087-.477 2.129-.511c1.509-.31 2.636-.401 3.382-.274s1.371.454 1.874.98.827 1.145.973 1.856c.137.663.094 1.36-.127 2.088s-.624 1.378-1.211 1.951-1.396 1.09-2.429 1.549l1.777 1.56 3.792 3.321 1.87 1.529c.082.041.16.066.237.075.126.015.391-.018.794-.101l.155.758-1.59.253-1.703.424c-.635-.487-1.733-1.468-3.294-2.942l-2.268-2.028-2.96-2.393.046-.38.943-.156c1.437-.294 2.457-.858 3.06-1.689s.791-1.804.562-2.917c-.199-.971-.677-1.678-1.434-2.119s-1.784-.529-3.079-.264a8.14 8.14 0 0 0-2.317.858l.175 1.211c.014.113.222 1.267.623 3.464l1.08 5.26.69 3.13c.17.747.315 1.182.435 1.306s.289.197.509.223.796-.05 1.731-.225l.156.758-3.112.54-3.806.88-.156-.759c.928-.206 1.489-.364 1.681-.474s.314-.231.368-.365c.063-.177.044-.572-.057-1.186l-.643-3.374-1.125-5.484-.682-3.144c-.178-.745-.327-1.178-.445-1.298s-.286-.192-.502-.218-.794.05-1.737.227z"/></g><mask id="I" maskUnits="userSpaceOnUse" x="0" y="0" width="300" height="300"><path d="M0 300h300V0H0v300z" class="B"/></mask><g mask="url(#I)" class="C"><path d="M137.665 29.09a16.44 16.44 0 0 0 2.815.065c1.014-.059 1.904-.201 2.67-.424s1.415-.512 1.948-.866 1.038-.86 1.516-1.518.827-1.484 1.046-2.478a11.07 11.07 0 0 0 .239-3.061c-.088-1.497-.431-2.767-1.03-3.809s-1.453-1.818-2.565-2.326-2.61-.707-4.493-.596a20.44 20.44 0 0 0-3.004.407l.062 2.104.055 1.754.283 4.816.257 3.74.201 2.193zm-3.664 1.536l-.035-.579 1.13-.793-.015-2.289-.118-3.458-.29-4.925-.235-2.772c-.072-.666-.153-1.078-.243-1.234a.51.51 0 0 0-.267-.214c-.272-.097-.827-.125-1.664-.084l-.045-.761 3.119-.111 2.828-.215 2.779-.212c1.972-.116 3.572.042 4.801.474s2.296 1.216 3.203 2.35 1.409 2.553 1.51 4.259c.072 1.224-.058 2.382-.389 3.476s-.811 2.06-1.44 2.901-1.317 1.518-2.061 2.029-1.536.912-2.371 1.2-1.993.474-3.474.562l-1.994.069-2.151.078-2.578.248z"/></g><mask id="J" maskUnits="userSpaceOnUse" x="0" y="0" width="300" height="300"><path d="M0 300h300V0H0v300z" class="B"/></mask><g mask="url(#J)" class="C"><path d="M174.474 30.028l-.62 1.05c-1 .343-1.961.559-2.885.647a12.86 12.86 0 0 1-2.967-.084c-1.238-.171-2.366-.484-3.385-.942s-1.888-1.03-2.603-1.719-1.274-1.427-1.677-2.215-.681-1.621-.828-2.501-.153-1.821-.015-2.827c.351-2.548 1.53-4.536 3.537-5.965s4.549-1.931 7.624-1.508c.726.1 1.393.234 2.001.403s1.341.433 2.199.791l1.578.639a7.67 7.67 0 0 0-.573 1.239c-.222.662-.418 1.437-.589 2.325l-.755-.105.183-1.415c.027-.793-.326-1.437-1.059-1.928s-1.861-.841-3.377-1.05c-1.137-.14-2.119-.126-2.948.04a5.59 5.59 0 0 0-2.27 1.018c-.684.513-1.281 1.2-1.791 2.061s-.863 1.983-1.061 3.363c-.333 2.42.138 4.468 1.412 6.146s3.126 2.682 5.555 3.016c1.093.151 2.129.138 3.106-.036.667-.12 1.346-.36 2.039-.721l.169.28z"/></g><mask id="K" maskUnits="userSpaceOnUse" x="0" y="0" width="300" height="300"><path d="M0 300h300V0H0v300z" class="B"/></mask><g mask="url(#K)" class="C"><path d="M179.974 23.834c-.217.735-.364 1.503-.439 2.304s-.085 1.509-.022 2.125c.098 1.037.354 1.959.767 2.766s.945 1.469 1.597 1.984 1.425.905 2.321 1.169c1.245.366 2.417.383 3.516.046s2.038-.988 2.815-1.957 1.378-2.172 1.802-3.61c.362-1.229.533-2.41.514-3.542a7.45 7.45 0 0 0-.293-1.958c-.181-.613-.445-1.178-.792-1.696s-.85-1.018-1.507-1.498a7.32 7.32 0 0 0-2.261-1.095c-1.23-.363-2.39-.405-3.479-.13s-2.022.864-2.796 1.767-1.356 2.01-1.743 3.325zm-2.696.252c.36-1.222.876-2.296 1.549-3.224s1.556-1.681 2.651-2.257a8.98 8.98 0 0 1 3.439-1.022c1.2-.104 2.491.047 3.876.455 1.276.376 2.383.898 3.32 1.565s1.655 1.395 2.15 2.184.83 1.592 1.01 2.41c.139.613.19 1.3.155 2.063s-.173 1.55-.413 2.362c-.768 2.606-2.283 4.517-4.545 5.733s-4.728 1.43-7.395.644c-1.214-.358-2.289-.889-3.224-1.593s-1.653-1.552-2.15-2.544-.772-2.098-.824-3.32.082-2.374.401-3.456z"/></g><mask id="L" maskUnits="userSpaceOnUse" x="0" y="0" width="300" height="300"><path d="M0 300h300V0H0v300z" class="B"/></mask><g mask="url(#L)" class="C"><path d="M193.802 38.134l.26-.572c.552-.005.919-.043 1.1-.111.104-.033.193-.094.269-.184.159-.175.404-.595.733-1.26l.86-1.775 2.693-5.922 1.298-2.943c.295-.707.429-1.144.404-1.311s-.119-.324-.278-.471-.671-.427-1.538-.839l.32-.705 3.285 1.6 3.199 1.348-.32.705c-.881-.383-1.428-.585-1.644-.608s-.384.005-.508.081c-.155.107-.371.438-.65.993l-1.466 3.106-3.363 7.398-.812 1.902 2.453 1.209c2.07.941 3.579 1.468 4.529 1.58.195-.177.394-.392.598-.644l1.271-1.628.737.335-2.225 3.638-.766-.215-1.775-.767-6.478-3.052-2.186-.888z"/></g><mask id="M" maskUnits="userSpaceOnUse" x="0" y="0" width="300" height="300"><path d="M0 300h300V0H0v300z" class="B"/></mask><g mask="url(#M)" class="C"><path d="M207.057 44.334l.328-.536c.548.061.916.069 1.105.024a.58.58 0 0 0 .289-.149c.181-.154.474-.543.882-1.162l1.069-1.657 3.393-5.55 1.648-2.763c.379-.665.565-1.083.56-1.251s-.078-.336-.217-.502-.615-.506-1.425-1.02l.404-.66 3.065 1.987 3.012 1.728-.405.661c-.826-.486-1.346-.754-1.556-.803s-.383-.043-.515.019c-.166.086-.422.389-.767.906l-1.833 2.904-4.239 6.933-1.038 1.789 2.289 1.499c1.939 1.186 3.373 1.893 4.302 2.12a5.74 5.74 0 0 0 .672-.566l1.46-1.46.691.422-2.652 3.34-.733-.307-1.67-.978-6.057-3.818-2.062-1.148z"/></g><mask id="N" maskUnits="userSpaceOnUse" x="0" y="0" width="300" height="300"><path d="M0 300h300V0H0v300z" class="B"/></mask><g mask="url(#N)" class="C"><path d="M218.932 51.685l.474-.597c.668.52 1.144.814 1.427.885.118.032.229.022.333-.03.164-.076.471-.373.921-.89l1.771-2.115 3.838-4.842 1.97-2.544c.457-.615.693-1.007.708-1.175s-.036-.343-.155-.524-.549-.576-1.291-1.185l.481-.606 2.655 2.197 2.9 2.222 3.007 2.338a18.15 18.15 0 0 1 1.689 1.509c-.386.28-.704.537-.952.772-.057.047-.635.659-1.733 1.836l-.597-.474c.517-.639.942-1.259 1.274-1.859-.232-.422-.537-.822-.913-1.203a21.89 21.89 0 0 0-2.018-1.816l-1.044-.766-1.18-.828-1.62 1.926-2.577 3.173 1.993 1.672c.752.596 1.42 1.07 2.006 1.42.221.135.391.187.509.157s.372-.25.768-.657l.582-.618.569.451-.143.18-1.61 1.934-1.703 2.246-.663-.526.482-.667c.357-.478.545-.802.563-.973s-.058-.359-.225-.564c-.3-.361-.968-.952-2.004-1.774l-1.838-1.379-2.278 2.776-2.064 2.701 2.978 2.531 1.776 1.284c.381.22.764.385 1.149.495.232-.135.517-.341.86-.616l1.281-1.051.625.496c-1.175 1.145-2.097 2.138-2.763 2.979-.608-.349-1.301-.83-2.077-1.447l-5.598-4.561-2.543-1.893z"/></g><mask id="O" maskUnits="userSpaceOnUse" x="0" y="0" width="300" height="300"><path d="M0 300h300V0H0v300z" class="B"/></mask><g mask="url(#O)" class="C"><path d="M242.391 71.861c-1.168-.578-2.078-1.096-2.729-1.554-1.147-.812-2.147-1.662-3-2.553-1.289-1.344-2.172-2.793-2.649-4.345s-.516-3.069-.115-4.548 1.249-2.839 2.54-4.077c1.135-1.088 2.296-1.808 3.482-2.162s2.329-.469 3.428-.347 2.065.372 2.895.748c1.271.58 2.568 1.559 3.89 2.939.613.651 1.19 1.402 1.731 2.252l1.725 2.978c-.381.197-.735.41-1.065.637s-.974.726-1.93 1.499l-.511-.532.953-.998.35-.369c.087-.095.171-.247.25-.456.058-.358.007-.791-.153-1.295-.342-.812-.661-1.447-.957-1.907s-.699-.957-1.213-1.492c-1.059-1.105-2.213-1.836-3.46-2.194s-2.509-.323-3.787.105-2.437 1.139-3.479 2.137c-1.146 1.099-1.944 2.331-2.394 3.696s-.526 2.691-.228 3.975.971 2.471 2.015 3.56c.492.513 1.017.961 1.577 1.348s1.086.661 1.579.826c.283-.171.68-.502 1.193-.993l.968-.929c.513-.491.787-.804.825-.941s-.034-.34-.21-.612-.65-.832-1.419-1.68l.533-.511 2.55 2.782 1.617 1.565-.368.454-1.012-.287-1.82 1.545c-.524.502-1.058 1.081-1.602 1.737z"/></g><mask id="P" maskUnits="userSpaceOnUse" x="0" y="0" width="300" height="300"><path d="M0 300h300V0H0v300z" class="B"/></mask><g mask="url(#P)" class="C"><path d="M242.933 74.089l.617-.448c.503.681.882 1.092 1.137 1.237.105.063.214.084.328.061.178-.03.553-.233 1.127-.61l2.273-1.561 5-3.63 2.582-1.919c.605-.47.937-.783.997-.941s.057-.341-.009-.547-.372-.703-.923-1.489l.626-.454 1.967 2.831 2.194 2.92 2.267 3.061a18.12 18.12 0 0 1 1.222 1.908c-.448.165-.823.328-1.125.488-.068.03-.79.463-2.163 1.302l-.448-.617c.671-.476 1.246-.96 1.728-1.449-.11-.468-.297-.936-.557-1.404-.439-.797-.924-1.561-1.454-2.292l-.799-1.019-.915-1.114-2.078 1.419-3.336 2.362 1.47 2.146a19.11 19.11 0 0 0 1.55 1.908c.177.19.326.286.447.288s.427-.141.917-.426l.727-.439.426.587-.185.134-2.071 1.429-2.245 1.705-.497-.685.645-.513c.472-.364.74-.626.804-.786s.041-.362-.066-.603c-.191-.428-.675-1.178-1.452-2.247l-1.399-1.824-2.942 2.062-2.714 2.046 2.188 3.239 1.364 1.714a5.11 5.11 0 0 0 .975.787c.259-.069.59-.189.992-.362l1.517-.669.47.645-3.463 2.126c-.493-.5-1.03-1.15-1.612-1.953l-4.164-5.898-1.94-2.507z"/></g><mask id="Q" maskUnits="userSpaceOnUse" x="0" y="0" width="300" height="300"><path d="M0 300h300V0H0v300z" class="B"/></mask><g mask="url(#Q)" class="C"><path d="M99 259.739l.287-.719 2.871 1.225 3.038 1.161 2.961 1.132 1.492.615 1.205.553c-.442.562-1.015 1.648-1.719 3.259l-.708-.282c.295-.934.479-1.666.555-2.201-.336-.29-.777-.582-1.324-.875a19.89 19.89 0 0 0-1.956-.891c-.756-.303-1.557-.57-2.401-.803l-.543 1.098-1.083 2.549-.996 2.494 2.21.921c.95.38 1.73.635 2.337.764.233.05.398.045.496-.016s.294-.349.586-.866l.368-.66.708.282-1.101 2.529-1.021 2.783-.708-.283.208-.75.347-1.386c-.019-.129-.129-.264-.334-.406-.387-.267-1.333-.702-2.838-1.303l-1.657-.611-.907 2.269-1.144 2.994c-.269.717-.387 1.16-.354 1.329s.133.325.301.467.692.395 1.57.763l-.287.719-2.805-1.225-3.741-1.392.287-.717c.89.338 1.444.513 1.664.528s.391-.02.51-.103c.15-.114.351-.455.604-1.022l1.319-3.171 2.077-5.199 1.159-3c.262-.721.377-1.165.343-1.33s-.134-.317-.299-.457-.692-.395-1.576-.766z"/></g><mask id="R" maskUnits="userSpaceOnUse" x="0" y="0" width="300" height="300"><path d="M0 300h300V0H0v300z" class="B"/></mask><g mask="url(#R)" class="C"><path d="M109.892 281.355l.156-.609c.541-.103.896-.204 1.062-.304a.57.57 0 0 0 .232-.227c.127-.201.293-.658.499-1.371l.533-1.898 1.605-6.305.758-3.127c.165-.748.22-1.202.166-1.361s-.174-.298-.356-.415-.737-.301-1.662-.554l.19-.75 3.515.994 3.388.762-.191.751c-.934-.222-1.508-.324-1.724-.308s-.379.072-.487.169c-.133.132-.289.497-.465 1.092l-.893 3.317-2.005 7.875-.462 2.016 2.627.756c2.203.56 3.782.812 4.736.756.162-.208.32-.456.475-.74l.964-1.826.786.199-1.548 3.974-.791-.077-1.885-.442-6.914-1.859-2.309-.488z"/></g><mask id="S" maskUnits="userSpaceOnUse" x="0" y="0" width="300" height="300"><path d="M0 300h300V0H0v300z" class="B"/></mask><g mask="url(#S)" class="C"><path d="M128.634 276.042c-.086.762-.096 1.543-.033 2.345s.18 1.501.349 2.096c.276 1.004.688 1.869 1.236 2.591s1.186 1.281 1.917 1.676 1.56.644 2.489.748c1.29.145 2.447-.043 3.471-.565s1.835-1.327 2.432-2.416.978-2.378 1.146-3.868c.144-1.275.108-2.467-.109-3.578-.134-.68-.344-1.306-.628-1.878a6.19 6.19 0 0 0-1.075-1.533c-.432-.449-1.014-.854-1.744-1.211s-1.536-.587-2.418-.686c-1.273-.143-2.422.015-3.448.476s-1.841 1.203-2.446 2.227-.986 2.215-1.139 3.576zm-2.612.717c.142-1.266.465-2.414.965-3.445s1.241-1.925 2.218-2.683a8.99 8.99 0 0 1 3.211-1.604c1.162-.312 2.461-.387 3.895-.225 1.322.148 2.502.468 3.542.963s1.872 1.087 2.495 1.777 1.096 1.424 1.414 2.198c.244.578.415 1.246.512 2.004s.099 1.557.004 2.398c-.304 2.699-1.463 4.845-3.48 6.435s-4.406 2.231-7.17 1.92c-1.258-.142-2.409-.478-3.452-1.009a7.22 7.22 0 0 1-2.56-2.13c-.661-.891-1.125-1.932-1.388-3.126s-.332-2.351-.206-3.473z"/></g><mask id="T" maskUnits="userSpaceOnUse" x="0" y="0" width="300" height="300"><path d="M0 300h300V0H0v300z" class="B"/></mask><g mask="url(#T)" class="C"><path d="M145.43 270.829l-.021-.773 1.439-.005 2.323-.006 2.138-.109 2.186-.136c1.538-.043 2.665.062 3.377.316a3.28 3.28 0 0 1 1.677 1.288c.404.606.616 1.272.638 1.998.019.676-.144 1.354-.487 2.033s-.854 1.25-1.53 1.713-1.563.831-2.66 1.104l1.48 1.845 3.16 3.927 1.577 1.83c.074.054.147.093.221.114.122.038.388.05.8.038l.021.774-1.609-.026-1.751.122c-.541-.59-1.453-1.745-2.736-3.466l-1.882-2.39-2.502-2.869.111-.367.956.01c1.466-.042 2.568-.42 3.306-1.135s1.09-1.641 1.058-2.777c-.029-.991-.377-1.769-1.046-2.335s-1.665-.83-2.986-.791c-.831.023-1.641.171-2.431.444l-.038 1.222.015 3.521.153 5.366.14 3.202c.037.766.105 1.219.201 1.361s.252.246.463.308.793.088 1.744.077l.022.774-3.157-.007-3.902.208-.021-.773c.949-.043 1.528-.103 1.736-.177s.35-.174.427-.296c.092-.164.141-.556.148-1.178l-.05-3.435-.159-5.596-.128-3.214c-.046-.765-.117-1.217-.214-1.355s-.248-.239-.456-.302-.791-.088-1.751-.077z"/></g><mask id="U" maskUnits="userSpaceOnUse" x="0" y="0" width="300" height="300"><path d="M0 300h300V0H0v300z" class="B"/></mask><g mask="url(#U)" class="C"><path d="M170.442 284.764l.097.768-3.371.33-3.695.565-.097-.768c.941-.136 1.512-.25 1.711-.345s.332-.207.396-.337c.076-.171.087-.567.033-1.186l-.384-3.413-.704-5.554-.44-3.187c-.121-.757-.235-1.199-.345-1.328s-.271-.213-.484-.255-.795-.012-1.749.093l-.097-.768 3.549-.363 3.517-.532.097.768c-.949.137-1.522.252-1.718.346s-.325.205-.39.335c-.075.172-.086.568-.032 1.187l.384 3.413.703 5.555.439 3.175c.121.756.235 1.201.346 1.333s.271.22.485.262.795.01 1.749-.094z"/></g><mask id="V" maskUnits="userSpaceOnUse" x="0" y="0" width="300" height="300"><path d="M0 300h300V0H0v300z" class="B"/></mask><g mask="url(#V)" class="C"><path d="M178.858 282.685c.898-.072 1.822-.23 2.775-.474.984-.252 1.831-.561 2.541-.925s1.292-.773 1.746-1.223.854-1.043 1.198-1.78.529-1.615.554-2.632a11.11 11.11 0 0 0-.351-3.051c-.372-1.451-.952-2.633-1.738-3.542a5.53 5.53 0 0 0-2.963-1.794c-1.188-.285-2.697-.195-4.523.274a20.52 20.52 0 0 0-2.873.974l.465 2.052.389 1.711 1.197 4.674.966 3.622.617 2.114zm-3.304 2.207l-.143-.561.956-.994-.451-2.244-.777-3.372-1.225-4.778-.762-2.678c-.197-.639-.354-1.028-.473-1.164-.08-.087-.181-.14-.303-.159-.285-.043-.835.035-1.649.235l-.19-.738 3.041-.704 2.734-.751 2.688-.74c1.914-.489 3.515-.64 4.804-.45s2.486.755 3.592 1.694 1.873 2.238 2.297 3.892c.304 1.188.398 2.35.281 3.487s-.403 2.178-.859 3.123-1.002 1.74-1.636 2.385-1.333 1.189-2.097 1.63-1.866.847-3.303 1.215l-1.945.448-2.097.488-2.483.736z"/></g><mask id="W" maskUnits="userSpaceOnUse" x="0" y="0" width="300" height="300"><path d="M0 300h300V0H0v300z" class="B"/></mask><g mask="url(#W)" class="C"><path d="M195.139 272.175l5.662-2.289-5.537-5.627-.125 7.916zm-2.669 8.398l-.308-.763c.587-.246.946-.418 1.074-.519a1.05 1.05 0 0 0 .309-.398c.077-.166.132-.538.168-1.118l.182-3.739.247-7.457.084-5.435.729-.295 9.334 9.309 2.935 2.804c.248.205.473.314.674.327s.599-.093 1.192-.325l.308.763-2.489.876-3.564 1.572-.308-.763 1.492-.695c.165-.11.264-.213.298-.309a.4.4 0 0 0-.011-.302c-.066-.165-.205-.357-.415-.576l-2.767-2.872-6.49 2.624-.056 3.376c-.009.604.036 1.024.132 1.264.042.105.107.178.195.222.121.063.275.079.461.047.301-.052.801-.215 1.499-.489l.308.763-2.877 1.046-2.336 1.062z"/></g></svg>